<?xml version="1.0" encoding="utf-8"?>
<!-- Svg Vector Icons : http://www.onlinewebfonts.com/icon -->
<!DOCTYPE svg PUBLIC "-//W3C//DTD SVG 1.1//EN" "http://www.w3.org/Graphics/SVG/1.1/DTD/svg11.dtd">
<svg version="1.1" xmlns="http://www.w3.org/2000/svg" xmlns:xlink="http://www.w3.org/1999/xlink" x="0px" y="0px" viewBox="0 0 1000 1000" enable-background="new 0 0 1000 1000" xml:space="preserve">
<metadata> Svg Vector Icons : http://www.onlinewebfonts.com/icon </metadata>
<g><g transform="translate(0.000000,511.000000) scale(0.100000,-0.100000)"><path d="M3748.3,4969.6c-92.3-53.8-132.6-126.9-132.6-246c0-80.7,9.6-107.6,59.6-165.3c32.7-36.5,92.3-76.9,134.5-88.4l75-23.1V3013V1579.2l-94.2-221C3738.7,1237.1,3237.1,57,2673.9-1263.4c-686.2-1612.5-1032.1-2446.7-1051.3-2537c-48.1-232.6-3.8-467.1,123-651.6c75-109.6,255.6-236.4,405.5-286.4l128.8-44.2l2671.6-5.8c2617.8-3.8,2673.5-3.8,2823.4,34.6c82.6,21.1,190.3,61.5,238.3,88.4c292.2,171.1,436.3,507.4,365.2,853.4c-23.1,105.7-332.5,851.4-1147.4,2765.8L6114.3,1577.3v1433.8v1435.7l75,23.1c42.3,11.5,101.9,51.9,134.5,88.4c50,57.7,59.6,84.6,59.6,165.3c0,119.2-40.4,192.2-134.5,246c-71.1,40.4-90.3,40.4-1251.2,40.4C3836.7,5010,3815.6,5008.1,3748.3,4969.6z M5845.2,2978.4V1504.3l1112.8-2615.8c613.1-1437.7,1122.4-2648.5,1134-2690.8c26.9-98,26.9-267.2,0-365.2c-30.8-115.3-188.4-261.4-334.4-307.5c-111.5-36.5-184.5-38.4-2758.1-38.4c-2540.9,0-2646.6,1.9-2754.2,36.5c-132.6,44.2-272.9,161.4-322.9,271c-40.4,88.4-48,284.5-15.4,403.6c11.5,42.3,520.9,1253.1,1134,2690.8l1112.8,2615.8v1474.2v1474.2h845.7h845.7V2978.4z"/><path d="M4369.1-281.3c-51.9-55.7-53.8-136.5-3.8-186.4c36.5-36.5,63.4-38.4,634.3-38.4c570.8,0,597.7,1.9,634.3,38.4c51.9,51.9,50,136.5-5.8,188.4c-44.2,42.3-55.7,42.3-630.4,42.3h-588.1L4369.1-281.3z"/><path d="M4376.8-1027c-59.6-48.1-65.3-126.9-13.5-192.2l36.5-46.1h599.7h599.7l36.5,46.1c51.9,65.3,46.1,144.2-13.5,192.2c-50,38.4-73,40.4-622.7,40.4C4449.9-986.7,4426.8-988.6,4376.8-1027z"/><path d="M4409.5-1755.4c-92.3-38.4-111.5-167.2-32.7-228.7c50-38.4,73-40.4,622.7-40.4c549.7,0,572.7,1.9,622.7,40.4c59.6,48,65.3,126.9,13.5,192.2l-36.5,46.1l-574.7,3.8C4709.3-1740.1,4432.6-1745.8,4409.5-1755.4z"/><path d="M4365.3-2543.5c-51.9-51.9-50-136.5,5.8-188.3c44.2-42.3,55.7-42.3,630.4-42.3h588.1l40.4,44.2c51.9,55.7,53.8,136.5,3.9,186.4c-36.5,36.5-63.4,38.4-634.3,38.4C4428.7-2505,4401.8-2507,4365.3-2543.5z"/><path d="M4365.3-3293.1c-21.1-21.1-38.4-63.4-38.4-96.1c0-32.7,17.3-75,38.4-96.1c36.5-36.5,63.4-38.4,634.3-38.4c570.8,0,597.7,1.9,634.3,38.4c21.2,21.1,38.4,63.4,38.4,96.1c0,32.7-17.3,75-38.4,96.1c-36.5,36.5-63.4,38.4-634.3,38.4C4428.7-3254.6,4401.8-3256.5,4365.3-3293.1z"/></g></g>
</svg>