<?xml version="1.0" encoding="utf-8"?>
<!-- Svg Vector Icons : http://www.onlinewebfonts.com/icon -->
<!DOCTYPE svg PUBLIC "-//W3C//DTD SVG 1.1//EN" "http://www.w3.org/Graphics/SVG/1.1/DTD/svg11.dtd">
<svg version="1.1" xmlns="http://www.w3.org/2000/svg" xmlns:xlink="http://www.w3.org/1999/xlink" x="0px" y="0px" viewBox="0 0 1000 1000" enable-background="new 0 0 1000 1000" xml:space="preserve">
<metadata> Svg Vector Icons : http://www.onlinewebfonts.com/icon </metadata>
<g><g transform="translate(0.000000,511.000000) scale(0.100000,-0.100000)"><path d="M6677.5,4915.2c-63.8-52.5-127.5-180-202.5-416.3c-142.5-450-131.3-476.3,315-656.2c367.5-146.2,495-165,573.7-82.5c26.3,26.3,138.8,236.3,251.3,461.3c288.7,585,255,656.2-333.8,705c-153.7,11.2-333.8,30-393.8,41.3C6808.7,4982.7,6745,4963.9,6677.5,4915.2z"/><path d="M4431.2,4772.7c-52.5-7.5-221.2-33.7-375-56.3c-386.2-56.3-930-232.5-1327.5-431.2c-1170-585-2070-1650-2437.5-2872.5C122.5,846.5,100,677.7,100-4.8c3.8-585,15-701.3,105-1061.2c116.3-461.3,307.5-945,513.8-1301.3c1278.7-2190,4042.5-3015,6281.2-1871.2c465,240,832.5,506.3,1218.7,896.3c723.7,720,1207.5,1676.2,1350,2658.7c26.3,161.3,37.5,536.3,30,828.8c-15,637.5-33.7,667.5-393.8,663.8c-420-3.8-686.2,225-780,667.5c-30,142.5-75,270-101.3,288.8c-63.8,41.2-228.7,18.8-442.5-63.8C7405,1521.5,6790,1799,6565,2297.7c-97.5,213.8-93.8,626.3,3.7,843.7c97.5,210,93.8,251.3-18.8,360c-63.8,67.5-131.3,93.8-232.5,93.8c-191.2,0-416.2,135-551.3,326.3c-90,131.3-112.5,202.5-127.5,442.5c-22.5,378.8-45,393.7-652.5,412.5C4735,4784,4483.7,4784,4431.2,4772.7z M4438.7,3793.9c93.8-86.2,82.5-210-30-348.7c-93.8-108.7-97.5-127.5-52.5-258.7c52.5-165,26.3-288.8-82.5-345c-127.5-71.2-251.2-7.5-330,165c-127.5,277.5-86.2,513.8,123.7,731.2C4195,3872.7,4330,3891.5,4438.7,3793.9z M3692.5,2725.2c37.5-30,101.3-202.5,157.5-435c108.7-446.3,116.3-543.8,37.5-607.5c-67.5-56.3-712.5-225-870-225c-165,0-210,82.5-315,551.3c-116.3,532.5-108.7,540,386.3,660C3538.7,2781.5,3606.2,2785.2,3692.5,2725.2z M5357.5,2166.5c176.3-86.2,348.7-326.2,348.7-483.8c0-123.7-105-225-228.7-225c-78.8,0-127.5,37.5-210,161.2c-93.8,138.8-127.5,157.5-266.2,168.8c-108.8,7.5-172.5,37.5-213.8,93.8c-78.8,112.5-71.3,165,37.5,270C4941.2,2271.5,5132.5,2275.2,5357.5,2166.5z M1956.2,1007.7c41.3-41.3,75-105,75-142.5c0-93.8-105-232.5-176.3-232.5c-97.5,0-198.7-116.3-198.7-232.5c0-123.7-116.3-255-232.5-255c-300,0-288.7,532.5,18.8,791.3C1615,1082.7,1851.2,1112.7,1956.2,1007.7z M3621.2,666.5c195-153.8,78.8-521.2-168.8-521.2c-153.8,0-217.5,33.8-281.2,153.8c-67.5,135-37.5,273.7,86.3,371.2C3381.2,767.7,3497.5,764,3621.2,666.5z M7637.5,467.7c577.5-165,558.8-116.3,315-967.5c-105-356.3-127.5-363.8-663.8-217.5c-453.8,123.7-570,187.5-570,303.7c0,135,225,873.8,288.8,941.3C7086.2,617.7,7150,610.2,7637.5,467.7z M5466.2,411.5c566.3-258.7,390-1098.8-228.7-1098.8c-206.3,0-378.8,97.5-498.7,273.7c-75,105-86.3,165-75,345c15,172.5,37.5,236.3,127.5,330C4997.5,482.7,5207.5,527.7,5466.2,411.5z M2466.2-139.8C3025-406,2833.7-1242.3,2218.7-1242.3c-285,0-532.5,210-581.2,483.7c-41.3,255,138.8,555,393.7,652.5C2140-64.8,2342.5-79.8,2466.2-139.8z M6647.4-1126c127.5-131.3,138.8-255,30-393.8c-56.3-71.2-108.8-97.5-213.8-97.5c-330,0-427.5,397.5-138.8,555C6448.7-994.8,6531.2-1009.8,6647.4-1126z M5301.2-1493.5c101.3-90,82.5-217.5-48.8-352.5c-97.5-101.2-112.5-135-90-236.2c60-255,3.7-360-191.3-360c-146.2,0-228.8,101.3-266.3,311.3c-33.7,221.3,18.8,390,172.5,551.3C5035-1414.8,5181.2-1384.8,5301.2-1493.5z M3613.7-2033.5c202.5-26.2,363.7-67.5,412.5-108.7c75-60,78.7-75,33.7-491.3c-52.5-491.2-93.8-626.2-206.3-656.2c-41.2-7.5-281.2,7.5-528.7,37.5c-487.5,60-543.7,90-543.7,300c0,240,86.2,795,135,877.5C2980-1977.3,3103.7-1969.8,3613.7-2033.5z M6850-2307.3c116.2-78.7,243.8-322.5,243.8-472.5c0-180-90-356.2-243.8-472.5c-180-135-480-150-645-30c-438.8,326.3-330,952.5,187.5,1061.2C6535-2187.3,6722.4-2224.8,6850-2307.3z M5008.7-3383.5c135-63.7,195-228.7,135-371.2c-127.5-311.2-562.5-221.3-562.5,116.2C4581.2-3409.7,4787.5-3286,5008.7-3383.5z"/><path d="M8604.9,4007.7c-176.3-71.2-217.5-345-75-480c120-112.5,303.8-108.8,420,11.2c123.8,123.7,120,262.5-15,397.5C8822.4,4049,8747.4,4064,8604.9,4007.7z"/><path d="M7300,3051.5c-236.3-232.5,22.5-603.7,337.5-483.7c93.7,37.5,176.2,232.5,150,356.2C7738.7,3145.2,7465,3220.2,7300,3051.5z"/><path d="M8826.2,2871.5c-206.3-131.2-318.8-225-333.8-285c-22.5-93.8,292.5-941.3,390-1035c116.2-120,228.7-67.5,603.7,288.8c198.8,187.5,378.8,382.5,397.5,427.5c48.8,116.3,0,198.7-311.3,532.5c-183.7,195-277.5,270-345,266.3C9178.7,3066.5,8998.7,2976.5,8826.2,2871.5z"/></g></g>
</svg>